<?xml version="1.0" encoding="UTF-8"?>
<!-- Generated by Pixelmator Pro 3.4.3 -->
<svg width="598" height="581" viewBox="0 0 598 581" xmlns="http://www.w3.org/2000/svg">
    <path id="uuid-207e1ec5-f316-41d7-bdda-8b0dd0a2bd60-376" fill="#ffb6b6" stroke="none" d="M 280.624237 440.86322 C 289.520966 442.226868 296.02887 447.922668 295.160126 453.584442 C 294.291382 459.246246 286.375793 462.729065 277.476074 461.36377 C 273.913544 460.867126 270.521729 459.524567 267.584412 457.448364 L 229.961639 451.19455 L 232.472656 436.323029 L 270.010559 441.634796 C 273.436096 440.533661 277.075531 440.269073 280.624268 440.86322 Z"/>
    <path id="Path" fill="#e6e6e6" stroke="none" d="M 118.49942 394.507141 L 133.087738 425.463257 L 206.42511 450.151154 L 267.280518 453.397858 L 268.804535 438.781281 L 202.851563 424.99115 L 135.175385 393.010223 L 118.49942 394.507141 Z"/>
    <g id="Group">
        <path id="path1" fill="#3f3d56" stroke="none" d="M 286.889191 329.789734 L 284.88916 329.745697 L 281.065948 503.480072 L 283.065979 503.524078 Z"/>
        <path id="path2" fill="#3f3d56" stroke="none" d="M 284.846191 406.670044 C 285.027344 406.053833 289.17334 391.401489 280.195313 376.999146 L 278.498047 378.057739 C 286.987793 391.675903 282.968262 405.964966 282.926758 406.108521 L 284.846191 406.670044 Z"/>
        <path id="path3" fill="#f33b33" stroke="none" d="M 279.4935 378.111237 C 279.4935 378.111237 282.22287 359.456177 257.079254 354.336304 C 251.841003 353.269653 246.916473 352.54071 242.402313 352.054993 C 237.073792 351.481659 234.9953 358.775818 239.808929 361.131775 C 246.780151 364.543762 253.33786 368.842621 256.755859 373.93338 C 266.182678 387.973602 279.4935 378.111237 279.4935 378.111237 Z"/>
        <path id="path4" fill="#3f3d56" stroke="none" d="M 282.259766 460.61731 L 284.179199 460.055786 C 284.137695 459.912231 280.118164 445.623169 288.60791 432.005005 L 286.910645 430.946411 C 277.932617 445.348755 282.078613 460.001099 282.259766 460.61731 Z"/>
        <path id="path5" fill="#f33b33" stroke="none" d="M 287.612305 432.058136 C 287.612305 432.058136 284.882935 413.403076 310.02655 408.283203 C 315.264801 407.216553 320.189331 406.48761 324.703491 406.001892 C 330.032013 405.428558 332.110504 412.722717 327.296875 415.078674 C 320.325623 418.490662 313.767944 422.78952 310.349915 427.88031 C 300.923096 441.920502 287.612274 432.058136 287.612274 432.058136 Z"/>
        <path id="path6" fill="#f33b33" stroke="none" d="M 252.616913 305.623596 C 247.555847 304.289154 242.82309 301.963989 242.980072 299.663757 C 243.166534 296.931244 250.192993 295.100342 256.2547 294.821747 C 251.682556 291.244751 247.481537 286.300049 248.766235 284.063751 C 249.947357 282.007813 255.441803 282.804199 260.511108 284.61496 C 257.511169 280.325958 255.402039 275.493011 257.008301 273.83905 C 259.009155 271.778809 266.110474 275.334839 270.956787 279.265564 C 270.013336 273.141876 270.490295 265.41217 273.236877 264.71283 C 275.534637 264.127777 278.791199 268.624237 281.023956 273.522369 C 282.010742 268.382141 284.008392 263.502106 286.313965 263.502106 C 289.598328 263.502106 292.260864 273.404602 292.260864 279.856079 C 292.260864 280.220764 292.25119 280.564056 292.234528 280.892059 C 292.564178 280.509857 292.941986 280.110596 293.372833 279.692169 C 298.000977 275.19751 306.959747 270.208618 309.247925 272.564728 C 310.854187 274.218689 308.745056 279.051636 305.745117 283.340607 C 310.814423 281.529846 316.308868 280.733459 317.48996 282.789398 C 319.076965 285.55191 312.293335 292.448059 306.779297 295.792328 C 307.110748 295.75238 307.459015 295.71875 307.82962 295.693481 C 314.266113 295.254303 324.326904 297.236542 324.550476 300.513306 C 324.707458 302.813538 319.974701 305.138733 314.913635 306.473145 C 319.952423 308.367279 324.660065 311.310211 324.232758 313.642456 C 323.714172 316.473053 315.80423 317.463959 309.584869 316.883942 C 314.231201 321.341858 319.269318 329.327789 317.166779 331.668243 C 315.625977 333.383331 310.660675 331.608124 306.177429 328.907104 C 308.329102 333.8414 309.497681 339.26886 307.526886 340.587189 C 304.922394 342.329407 297.779449 336.265717 294.013397 331.048157 C 294.397125 337.431274 292.869812 346.200439 289.839325 346.546509 C 287.548645 346.808105 285.010223 342.186188 283.446594 337.191132 C 281.783997 342.310944 279.058655 347.147858 276.709351 346.827271 C 273.65448 346.4104 272.322662 337.421814 272.892517 331.034088 C 269.007813 336.036957 262.470032 341.387451 260.003662 339.73764 C 258.032867 338.419312 259.201447 332.991821 261.353119 328.057556 C 256.869873 330.758575 251.904572 332.533783 250.36377 330.818695 C 248.26123 328.47821 253.299347 320.492279 257.945679 316.034393 C 251.726318 316.61441 243.816376 315.623505 243.297791 312.792908 C 242.870514 310.460663 247.578125 307.5177 252.616913 305.623596 Z M 279.868103 323.678955 C 281.169037 323.856476 282.358582 324.109985 283.263214 324.757324 C 284.224274 323.803284 285.62793 323.512726 287.188599 323.334503 C 288.936096 323.134949 290.524109 323.115692 291.735107 324.124115 C 292.178223 322.892487 293.267822 322.017517 294.537048 321.168488 C 295.628387 320.438446 296.686768 319.839172 297.793152 319.723633 C 297.879578 318.372253 298.737305 317.223724 299.787048 316.055176 C 300.45639 315.310089 301.126068 314.643921 301.869202 314.198334 C 300.797058 312.892944 300.920685 311.243042 301.252411 309.432343 C 301.489014 308.140839 301.796478 306.96405 302.484375 306.089874 C 301.575104 305.086334 301.348785 303.670898 301.241852 302.103729 C 301.125092 300.392517 301.173615 298.841034 302.161316 297.68573 C 299.608795 298.010437 298.376984 296.420227 297.232025 294.427216 C 296.578003 293.288727 296.052155 292.191986 296.012177 291.080292 C 294.6698 290.902069 293.582336 289.96814 292.488007 288.841278 C 291.553131 287.878662 290.757935 286.925507 290.459229 285.82843 C 289.388031 286.728668 287.926422 286.864899 286.313965 286.864899 C 284.743134 286.864899 283.315582 286.735474 282.252472 285.896637 C 281.427155 286.642426 280.274017 287.029297 279.001648 287.353271 C 277.787018 287.662537 276.640472 287.869385 275.598053 287.661224 C 275.217529 288.530518 274.540985 289.319946 273.768219 290.115601 C 272.673889 291.242493 271.586426 292.176392 270.244049 292.354645 C 270.204071 293.466309 269.678223 294.563049 269.0242 295.701538 C 268.254303 297.041687 267.445709 298.200439 266.222687 298.717438 C 266.365479 299.49588 266.35022 300.352722 266.288696 301.25415 C 266.181763 302.82135 265.955444 304.236816 265.046204 305.240326 C 265.7341 306.114502 266.041565 307.29129 266.278168 308.582764 C 266.609894 310.393463 266.733521 312.043396 265.661377 313.348785 C 266.40448 313.794342 267.074158 314.46051 267.7435 315.205627 C 268.793274 316.374176 269.651001 317.522675 269.737427 318.874084 C 270.843811 318.989624 271.902161 319.588898 272.99353 320.318939 C 274.48407 321.31601 275.725708 322.349548 275.964172 323.954071 C 277.082703 323.41153 278.421692 323.481598 279.868103 323.678955 Z"/>
        <path id="path7" fill="#3f3d56" stroke="none" d="M 262.101563 305.555176 C 262.101563 317.285126 271.610565 326.794128 283.340515 326.794128 C 295.070435 326.794128 304.579437 317.285126 304.579437 305.555176 C 304.579437 293.825226 295.070435 284.316223 283.340515 284.316223 C 271.610565 284.316223 262.101563 293.825226 262.101563 305.555176 Z"/>
    </g>
    <path id="path8" fill="#3f3d56" stroke="none" d="M 539.490784 563.099365 C 539.490784 563.759399 538.960754 564.289368 538.30072 564.289368 L 16.010742 564.289368 C 15.350769 564.289368 14.82074 563.759399 14.82074 563.099365 C 14.82074 562.439453 15.350769 561.909424 16.010742 561.909424 L 538.30072 561.909424 C 538.960754 561.909424 539.490784 562.439453 539.490784 563.099365 Z"/>
    <path id="path9" fill="#ffb6b6" stroke="none" d="M 253.761047 512.048096 L 266.858368 545.176575 L 283.807861 533.620117 L 273.792267 498.950775 L 253.761047 512.048096 Z"/>
    <path id="path10" fill="#ffb6b6" stroke="none" d="M 308.461609 499.721191 L 343.130981 532.849731 L 329.263245 547.487854 L 293.823456 519.75238 L 308.461609 499.721191 Z"/>
    <path id="path11" fill="#ffb6b6" stroke="none" d="M 112.001862 391.860931 L 112.387085 389.164429 L 121.24704 371.829742 L 150.523376 379.534058 L 145.130371 403.417389 L 112.001862 391.860931 Z"/>
    <path id="path12" fill="#2f2e41" stroke="none" d="M 124.328766 507.425507 L 123.428406 518.997131 C 123.428406 518.997131 119.706177 567.519043 149.75296 571.371216 C 179.799744 575.223389 192.897064 579.0755 210.616974 549.028748 L 238.352448 499.721191 L 254.552734 518.997131 L 276.103546 502.032501 C 276.103546 502.032501 260.694916 441.938934 248.368042 439.627625 C 246.827179 439.338715 245.286316 439.194275 243.769531 439.162659 C 233.564453 438.950043 223.944611 443.94165 217.838684 452.121277 L 182.88147 498.950775 L 170.169373 493.172546 L 124.328735 507.425507 Z"/>
    <path id="path13" fill="#2f2e41" stroke="none" d="M 290.74173 543.635742 L 283.807861 530.538391 L 263.776672 544.406128 C 263.776672 544.406128 259.154083 561.355652 266.087952 563.666931 C 273.02182 565.97821 292.282593 562.896484 292.282593 562.896484 C 292.282593 562.896484 327.722382 570.600769 328.492798 563.666931 C 329.263245 556.733032 312.313782 555.1922 312.313782 555.1922 L 290.74173 543.635742 Z"/>
    <path id="path14" fill="#2f2e41" stroke="none" d="M 215.239563 534.390564 L 268.784454 500.652374 L 296.134735 525.145386 L 314.625061 503.573334 C 314.625061 503.573334 280.726135 453.495361 270.710541 451.184082 C 260.694946 448.872772 244.5159 447.33194 244.5159 447.33194 L 195.208374 492.787323 L 215.239563 534.390564 Z"/>
    <path id="path15" fill="#2f2e41" stroke="none" d="M 343.901428 529.768005 L 326.181519 549.028748 L 328.518311 551.027588 C 328.518311 551.027588 333.115387 571.049683 343.901428 564.276611 C 354.687469 557.503479 355.457886 555.962585 355.457886 555.962585 C 355.457886 555.962585 386.275116 562.896484 389.356842 550.56958 C 392.438538 538.242676 383.963806 540.554016 383.963806 540.554016 L 376.268616 545.176575 L 343.901428 529.767944 Z"/>
    <path id="path16" fill="#ffb6b6" stroke="none" d="M 116.624451 363.355011 C 116.624451 376.970917 127.662323 388.008789 141.278229 388.008789 C 154.894135 388.008789 165.932007 376.970917 165.932007 363.355011 C 165.932007 349.739105 154.894135 338.701233 141.278229 338.701233 C 127.662323 338.701233 116.624451 349.739105 116.624451 363.355011 Z"/>
    <path id="path17" fill="#e6e6e6" stroke="none" d="M 147.056458 398.409607 L 111.616669 387.623566 C 111.616669 387.623566 97.748901 419.981659 100.060211 434.619812 C 102.37149 449.257996 123.428406 518.997131 123.428406 518.997131 L 170.169373 493.172516 C 170.169373 493.172516 170.939789 477.763916 173.251068 470.830048 C 175.562378 463.896179 182.88147 442.70932 166.702423 424.989441 C 150.523376 407.269531 147.056458 398.409576 147.056458 398.409576 Z"/>
    <g id="g1">
        <path id="path18" fill="#3f3d56" stroke="none" d="M 495.155304 155.524048 L 493.15625 155.480072 L 484.156281 564.480103 L 486.155334 564.524048 Z"/>
        <path id="path19" fill="#3f3d56" stroke="none" d="M 490.401398 336.162231 C 490.503937 335.812622 500.418976 300.803833 479.602051 267.410767 L 477.904785 268.468872 C 498.25293 301.110474 488.58252 335.257935 488.482422 335.599731 L 490.401398 336.162231 Z"/>
        <path id="path20" fill="#f33b33" stroke="none" d="M 479.099243 269.311096 C 479.099243 269.311096 485.524628 225.393982 426.332367 213.340942 C 414.000641 210.829926 402.407471 209.1138 391.780396 207.970367 C 379.236206 206.620636 374.343048 223.792297 385.67514 229.338654 C 402.086578 237.371002 417.524506 247.491272 425.571075 259.475769 C 447.763336 292.528809 479.099243 269.311096 479.099243 269.311096 Z"/>
        <path id="path21" fill="#3f3d56" stroke="none" d="M 486.910156 463.162231 L 488.829102 462.599731 C 488.729492 462.258911 479.077667 428.079224 499.406769 395.468872 L 497.709473 394.410278 C 476.892609 427.803833 486.807617 462.812622 486.910156 463.162231 Z"/>
        <path id="path22" fill="#f33b33" stroke="none" d="M 498.21228 396.311096 C 498.21228 396.311096 491.786896 352.393982 550.979187 340.340973 C 563.310913 337.829926 574.904053 336.1138 585.531128 334.970367 C 598.075317 333.620667 602.968506 350.792328 591.636353 356.338654 C 575.224915 364.371002 559.787048 374.491272 551.740479 386.475769 C 529.548218 419.528809 498.21228 396.311096 498.21228 396.311096 Z"/>
        <path id="path23" fill="#f33b33" stroke="none" d="M 415.827362 98.663147 C 403.91275 95.521667 392.771088 90.047791 393.140564 84.63269 C 393.579529 78.19989 410.121002 73.889648 424.391296 73.233765 C 413.627686 64.812927 403.737793 53.172302 406.762207 47.907654 C 409.542725 43.067627 422.477539 44.942444 434.41156 49.205261 C 427.349182 39.108276 422.383972 27.730713 426.165344 23.837036 C 430.875732 18.986816 447.593384 27.358337 459.002441 36.611938 C 456.781433 22.19574 457.904236 3.998718 464.370178 2.352356 C 469.77948 0.975037 477.445984 11.560425 482.702209 23.091431 C 485.025269 10.99054 489.728088 -0.497925 495.155762 -0.497925 C 502.887756 -0.497925 509.155762 22.814209 509.155762 38.002075 C 509.155762 38.860596 509.132996 39.668762 509.093811 40.440918 C 509.869873 39.541199 510.759277 38.601257 511.77356 37.61615 C 522.669006 27.034973 543.759399 15.290283 549.146179 20.837036 C 552.927551 24.730713 547.962341 36.108276 540.899963 46.205261 C 552.833984 41.942444 565.768799 40.067627 568.549316 44.907654 C 572.2854 51.411072 556.315552 67.645691 543.334595 75.518646 C 544.114929 75.424652 544.934753 75.34549 545.807251 75.28598 C 560.959839 74.252106 584.644592 78.91861 585.170959 86.63266 C 585.540466 92.04776 574.398804 97.521637 562.484192 100.663116 C 574.346313 105.122162 585.428894 112.050385 584.422974 117.540863 C 583.202148 124.204559 564.580811 126.537262 549.939392 125.171844 C 560.877625 135.666473 572.73822 154.466705 567.788452 159.976532 C 564.161194 164.014191 552.472046 159.834991 541.917725 153.476349 C 546.983093 165.092499 549.734131 177.869659 545.094543 180.973236 C 538.963135 185.074738 522.147461 170.799774 513.281555 158.516754 C 514.184937 173.543762 510.589355 194.187775 503.455078 195.002502 C 498.062439 195.618317 492.086548 184.737549 488.405518 172.978363 C 484.491516 185.031311 478.075562 196.418152 472.544922 195.663452 C 465.353271 194.682068 462.217957 173.521393 463.559448 158.483643 C 454.414246 170.26123 439.023193 182.857239 433.21698 178.973236 C 428.577393 175.869659 431.32843 163.092499 436.393799 151.476349 C 425.839478 157.834991 414.15033 162.014191 410.523071 157.976532 C 405.573303 152.466705 417.433899 133.666473 428.372131 123.171844 C 413.730713 124.537262 395.109375 122.204559 393.88855 115.540863 C 392.882629 110.050385 403.96521 103.122162 415.827332 98.663116 Z M 479.98114 141.168457 C 483.043762 141.586365 485.844208 142.183167 487.973846 143.707153 C 490.236298 141.461182 493.54071 140.777161 497.214874 140.357605 C 501.328766 139.887817 505.06723 139.842468 507.918121 142.216492 C 508.961273 139.317017 511.526337 137.257202 514.514282 135.258423 C 517.083496 133.539795 519.575073 132.129028 522.179688 131.856995 C 522.383179 128.675598 524.402405 125.971802 526.873718 123.220825 C 528.449463 121.466736 530.026001 119.898499 531.775391 118.849548 C 529.251404 115.776428 529.542419 111.892273 530.323364 107.629578 C 530.880371 104.589172 531.604187 101.818848 533.223633 99.760864 C 531.083069 97.398376 530.550293 94.066162 530.298523 90.37677 C 530.023682 86.348328 530.137878 82.695862 532.463135 79.976135 C 526.454041 80.740479 523.554138 76.996887 520.858765 72.304993 C 519.319031 69.624817 518.081116 67.042908 517.987 64.425842 C 514.826782 64.006226 512.266785 61.807617 509.690491 59.154785 C 507.489685 56.888611 505.617615 54.644714 504.914429 52.062073 C 502.392639 54.181335 498.951782 54.502075 495.155762 54.502075 C 491.457764 54.502075 488.097046 54.197388 485.59436 52.222595 C 483.651398 53.978333 480.936798 54.889038 477.941345 55.651733 C 475.081909 56.379822 472.382751 56.86676 469.928741 56.376709 C 469.032928 58.423218 467.440186 60.281616 465.621033 62.154785 C 463.044769 64.807617 460.484772 67.006226 457.324524 67.425842 C 457.230408 70.042938 455.992493 72.624817 454.452759 75.305023 C 452.64032 78.45993 450.736755 81.187836 447.857544 82.404907 C 448.193726 84.237488 448.157776 86.254639 448.013031 88.37677 C 447.761261 92.066162 447.228455 95.398438 445.087921 97.760864 C 446.707367 99.818848 447.431183 102.589172 447.98819 105.629578 C 448.769104 109.892273 449.06015 113.776428 446.536133 116.849548 C 448.285522 117.898499 449.862091 119.466736 451.437805 121.220825 C 453.909119 123.971802 455.928345 126.675598 456.131836 129.856995 C 458.73645 130.129028 461.228027 131.539795 463.797272 133.258423 C 467.306274 135.605713 470.229279 138.038818 470.790649 141.816162 C 473.423889 140.538879 476.57605 140.703857 479.98114 141.168457 Z"/>
        <path id="path24" fill="#3f3d56" stroke="none" d="M 438.155762 98.502075 C 438.155762 126.116302 460.541534 148.502075 488.155762 148.502075 C 515.77002 148.502075 538.155762 126.116302 538.155762 98.502075 C 538.155762 70.887848 515.77002 48.502075 488.155762 48.502075 C 460.541534 48.502075 438.155762 70.887848 438.155762 98.502075 Z"/>
    </g>
    <g id="g2">
        <path id="path25" fill="#3f3d56" stroke="none" d="M 28.1875 465.798492 L 26.187988 465.754486 L 24.037109 563.480103 L 26.036621 563.524109 Z"/>
        <path id="path26" fill="#3f3d56" stroke="none" d="M 27.020996 509.157349 C 27.125 508.802856 29.508789 500.378052 24.355957 492.112427 L 22.658691 493.171021 C 27.32373 500.653442 25.124023 508.5177 25.101563 508.595825 L 27.020996 509.157349 Z"/>
        <path id="path27" fill="#f33b33" stroke="none" d="M 23.590088 492.969727 C 23.590088 492.969727 25.125366 482.476257 10.982056 479.596313 C 8.035522 478.996338 5.265503 478.586304 2.726318 478.31308 C -0.270996 477.99057 -1.440125 482.093567 1.267517 483.418793 C 5.188843 485.338013 8.877563 487.756134 10.800171 490.61969 C 16.102722 498.517303 23.590088 492.969727 23.590088 492.969727 Z"/>
        <path id="path28" fill="#3f3d56" stroke="none" d="M 24.726074 539.502075 L 26.645508 538.940552 C 26.623047 538.862427 24.42334 530.999146 29.088379 523.516724 L 27.391113 522.45813 C 22.238281 530.723755 24.62207 539.147583 24.726074 539.502075 Z"/>
        <path id="path29" fill="#f33b33" stroke="none" d="M 28.156921 523.31488 C 28.156921 523.31488 26.621643 512.821411 40.764954 509.941467 C 43.711487 509.341461 46.481506 508.931427 49.020691 508.658203 C 52.018005 508.335724 53.187134 512.43866 50.479492 513.763916 C 46.558167 515.683167 42.869446 518.101257 40.946838 520.964844 C 35.644287 528.862427 28.156921 523.314819 28.156921 523.314819 Z"/>
        <path id="path30" fill="#f33b33" stroke="none" d="M 8.472046 452.195435 C 5.625183 451.444794 2.963013 450.136871 3.05127 448.843018 C 3.156189 447.305969 7.108582 446.276093 10.51825 446.119385 C 7.946411 444.10733 5.583374 441.325928 6.30603 440.067993 C 6.970398 438.91153 10.061035 439.359497 12.912476 440.378052 C 11.225037 437.965515 10.038635 435.246979 10.9422 434.31662 C 12.067688 433.157715 16.062134 435.15799 18.788208 437.369049 C 18.257507 433.924469 18.525818 429.576508 20.07074 429.183105 C 21.36322 428.854034 23.195068 431.38327 24.450989 434.138458 C 25.006042 431.247101 26.1297 428.502075 27.426636 428.502075 C 29.274109 428.502075 30.771729 434.072235 30.771729 437.701202 C 30.771729 437.906311 30.766296 438.099426 30.756958 438.283936 C 30.942383 438.068939 31.154907 437.84436 31.397217 437.609009 C 34.000549 435.08075 39.039856 432.274506 40.326965 433.599823 C 41.230469 434.530151 40.044128 437.248688 38.356628 439.661255 C 41.20813 438.6427 44.298767 438.194733 44.963135 439.351196 C 45.855835 440.90509 42.040039 444.78418 38.938354 446.665344 C 39.124817 446.642883 39.320679 446.623962 39.529175 446.609741 C 43.149719 446.362701 48.808899 447.477722 48.934631 449.320892 C 49.022949 450.614777 46.360779 451.922699 43.513916 452.673309 C 46.348267 453.738739 48.996277 455.394165 48.75592 456.706055 C 48.464233 458.298248 44.014893 458.855621 40.516479 458.529388 C 43.130066 461.036957 45.963989 465.529022 44.781311 466.84552 C 43.914612 467.810272 41.121643 466.811707 38.599792 465.292389 C 39.81012 468.067932 40.467468 471.12088 39.358887 471.862457 C 37.89386 472.842438 33.875977 469.43161 31.757568 466.496735 C 31.973389 470.08725 31.114258 475.019897 29.409607 475.214569 C 28.121094 475.361725 26.693237 472.761871 25.813721 469.952179 C 24.87854 472.832062 23.34552 475.552826 22.024048 475.372498 C 20.305664 475.138 19.556519 470.081909 19.877075 466.4888 C 17.691895 469.302917 14.014404 472.312592 12.627075 471.384552 C 11.518494 470.643005 12.175842 467.590057 13.386169 464.814514 C 10.864319 466.333832 8.07135 467.332397 7.204651 466.367645 C 6.021973 465.051147 8.855896 460.559052 11.469482 458.051483 C 7.971069 458.377747 3.521729 457.820374 3.230042 456.22818 C 2.989685 454.91629 5.637695 453.260864 8.472046 452.195435 Z M 23.800781 462.351563 C 24.532593 462.451416 25.201721 462.594025 25.710571 462.95816 C 26.25116 462.421509 27.04071 462.258057 27.918579 462.157837 C 28.90155 462.045563 29.7948 462.034729 30.476013 462.60199 C 30.72522 461.90921 31.338135 461.417023 32.052063 460.939423 C 32.665955 460.528778 33.261292 460.191711 33.883667 460.126709 C 33.932251 459.366547 34.414734 458.72052 35.005249 458.063202 C 35.381714 457.644073 35.758423 457.269379 36.176392 457.018738 C 35.573364 456.284454 35.642883 455.356384 35.829468 454.33786 C 35.962585 453.611389 36.135498 452.949463 36.522461 452.457703 C 36.010986 451.893219 35.883728 451.097046 35.823547 450.215485 C 35.757874 449.25296 35.785156 448.380249 36.340759 447.730377 C 34.904968 447.913025 34.212036 447.018524 33.567993 445.897461 C 33.200134 445.25705 32.904358 444.640137 32.881836 444.014832 C 32.12677 443.914551 31.515076 443.389221 30.899475 442.755371 C 30.373657 442.213898 29.926331 441.677734 29.758301 441.060638 C 29.155762 441.567017 28.333618 441.643646 27.426575 441.643646 C 26.54303 441.643646 25.73999 441.570862 25.142029 441.098999 C 24.677734 441.518524 24.029114 441.736115 23.313416 441.918365 C 22.630188 442.092316 21.985229 442.208679 21.398926 442.091583 C 21.184875 442.580566 20.804321 443.024597 20.369629 443.472168 C 19.754089 444.106049 19.142395 444.631378 18.387268 444.731628 C 18.364807 445.356964 18.069031 445.973877 17.701111 446.614258 C 17.268066 447.368103 16.813232 448.019897 16.125244 448.310699 C 16.205566 448.748566 16.197021 449.23056 16.162415 449.73761 C 16.102234 450.619141 15.974915 451.415344 15.463501 451.979828 C 15.850403 452.471558 16.023376 453.133514 16.156433 453.859985 C 16.343079 454.87851 16.412598 455.80658 15.809509 456.540863 C 16.227539 456.791473 16.604187 457.166199 16.980713 457.585327 C 17.571228 458.242615 18.05365 458.888672 18.102295 459.648834 C 18.72467 459.713837 19.319946 460.050903 19.933838 460.461548 C 20.772278 461.02243 21.470703 461.60379 21.604858 462.506317 C 22.234009 462.201141 22.987183 462.24057 23.800781 462.351563 Z"/>
        <path id="path31" fill="#3f3d56" stroke="none" d="M 13.807129 452.156952 C 13.807129 458.755035 19.155945 464.103851 25.754028 464.103851 C 32.352112 464.103851 37.700928 458.755035 37.700928 452.156952 C 37.700928 445.558868 32.352112 440.210052 25.754028 440.210052 C 19.155945 440.210052 13.807129 445.558868 13.807129 452.156952 Z"/>
    </g>
    <g id="g3">
        <path id="uuid-fcc96ddd-8a9b-4008-9e3e-ba4d42e134c9-377" fill="#ffb6b6" stroke="none" d="M 225.057098 560.185791 C 230.824738 567.095581 231.934601 575.672485 227.53653 579.342346 C 223.138489 583.012146 214.899231 580.385071 209.130493 573.472046 C 206.788208 570.742188 205.133759 567.491089 204.305573 563.990723 L 180.23761 534.404968 L 191.961487 524.917175 L 216.589233 553.74054 C 219.886078 555.181885 222.789734 557.391907 225.057098 560.185791 Z"/>
        <path id="path32" fill="#e6e6e6" stroke="none" d="M 119.872559 413.953064 L 111.495819 447.133331 L 152.494324 512.760986 L 194.347595 554.824707 L 207.913055 543.570557 L 165.703278 491.051086 L 133.708527 423.381409 L 119.872559 413.953064 Z"/>
    </g>
    <path id="path33" fill="#2f2e41" stroke="none" d="M 164.00592 359.117645 C 157.683167 359.102509 157.324188 359.144623 156.301605 359.117645 C 148.459442 358.910828 146.408752 355.825531 142.433868 356.035919 C 135.339355 356.411469 144.703033 391.981049 148.597321 408.425201 C 152.416565 424.552612 139.509186 439.004089 138.581696 440.012848 C 125.48053 454.2612 102.468079 456.866577 98.519318 450.798889 C 95.323151 445.887665 106.650421 438.420166 103.912354 427.685974 C 101.235779 417.192902 88.876709 418.310272 85.421997 408.425201 C 81.804016 398.073029 93.962402 392.851837 101.601044 367.592407 C 105.987946 353.085785 105.211884 350.382782 109.305359 341.397766 C 120.247131 317.381317 173.878937 327.606873 167.858063 349.872498 C 166.69339 354.179504 169.792877 359.1315 164.00592 359.117645 Z"/>
</svg>
